# xmcd
#
# Track frame offsets: 
#        183
#        15055
#        27140
#        40848
#        54000
#        67983
#        80220
#        92883
#        107143
#        118830
#        132968
#        147003
#
# Disc length: 2126 seconds
#
# Revision: 5
# Processed by: cddbd v1.5.2PL0 Copyright (c) Steve Scherf et al.
# Submitted via: ExactAudioCopy v0.99pb4
#
DISCID=93084c0c
DTITLE=Various Artist - Remember The Forties - One More Time!
DYEAR=1990
DGENRE=Swing
TTITLE0=Jingle, Jangle, Jingle - Kay Kyser Orch
TTITLE1=The Hut-Sut Song - Freddy Martin Orch
TTITLE2=Mr. Five By Five - Freddie Slack Orch
TTITLE3=It's Only a Paper Moon - Nat King Cole
TTITLE4=Do Nothing' Till You Hear From Me - Stan Kenton Orch
TTITLE5=I Love You - Jo Stafford
TTITLE6=Mairzy Doats - The Pied Pipers
TTITLE7=His Rocking Horse Ran Away - Betty Hutton 
TTITLE8=No Love, No Nothing - Ella May Morse
TTITLE9=It Might As Well Be Spring - Dick Haymes
TTITLE10=I'm Beginning To See the Light - Harry James and His Music Make
TTITLE10=rs
TTITLE11=Ac-Cent-Tchu-Ate the Positive - Johnny Mercer
EXTD=Music of the War Years, Vol. IV - 1941-45\n1990 Cema Special Mark
EXTD=ets CDL57367
EXTT0=
EXTT1=
EXTT2=
EXTT3=
EXTT4=
EXTT5=
EXTT6=
EXTT7=
EXTT8=
EXTT9=
EXTT10=
EXTT11=
PLAYORDER=
